<?xml version="1.0" standalone="no"?>
<!DOCTYPE svg PUBLIC "-//W3C//DTD SVG 20010904//EN"
 "http://www.w3.org/TR/2001/REC-SVG-20010904/DTD/svg10.dtd">
<svg version="1.0" xmlns="http://www.w3.org/2000/svg"
 width="1280.000000pt" height="720.000000pt" viewBox="0 0 1280.000000 720.000000"
 preserveAspectRatio="xMidYMid meet">

<g transform="translate(0.000000,720.000000) scale(0.100000,-0.100000)"
fill="#000000" stroke="none">
<path d="M0 3600 l0 -3600 6400 0 6400 0 0 1910 c0 1051 -3 1910 -6 1910 -3 0
-19 -13 -34 -30 -15 -16 -35 -30 -44 -30 -9 0 -16 -4 -16 -10 0 -12 -65 -30
-107 -30 -26 0 -33 -4 -33 -20 0 -17 -7 -20 -40 -20 l-40 0 0 80 0 80 -40 0
c-29 0 -40 -4 -40 -15 0 -11 -11 -15 -40 -15 -29 0 -40 4 -40 15 0 11 -11 15
-40 15 l-40 0 0 55 0 55 -40 0 c-29 0 -40 -4 -40 -15 0 -11 -11 -15 -40 -15
l-40 0 0 -40 0 -40 -70 0 c-56 0 -70 -3 -70 -15 0 -25 -46 -65 -75 -65 -18 0
-25 5 -25 20 0 18 -7 20 -80 20 l-80 0 0 60 0 60 -80 0 -80 0 0 80 0 80 -240
0 -240 0 0 -25 c0 -22 -4 -25 -40 -25 -29 0 -40 -4 -40 -15 0 -11 11 -15 40
-15 l40 0 0 -40 0 -40 -200 0 -200 0 0 -40 0 -40 -40 0 -40 0 0 40 c0 29 -4
40 -15 40 -11 0 -15 -11 -15 -40 0 -36 -2 -40 -25 -40 -18 0 -25 -5 -25 -19 0
-16 -11 -20 -80 -26 -58 -5 -80 -11 -80 -21 0 -10 12 -14 40 -14 29 0 40 -4
40 -15 0 -11 -11 -15 -40 -15 -22 0 -40 -4 -40 -10 0 -5 -18 -10 -40 -10 -39
0 -40 -1 -40 -35 0 -34 -1 -35 -40 -35 -33 0 -40 3 -40 20 0 11 -7 20 -15 20
-11 0 -15 -11 -15 -38 0 -60 -22 -82 -81 -82 -42 0 -49 -3 -49 -20 0 -13 -7
-20 -20 -20 -11 0 -20 -4 -20 -9 0 -5 -9 -13 -20 -16 -13 -4 -20 -15 -20 -31
0 -21 -4 -24 -40 -24 -29 0 -40 -4 -40 -15 0 -11 -11 -15 -40 -15 -36 0 -40
-2 -40 -25 0 -22 -4 -25 -40 -25 l-40 0 0 -40 0 -40 -95 0 -95 0 0 -40 c0 -36
-2 -40 -25 -40 -31 0 -105 -71 -105 -100 0 -17 -7 -20 -39 -20 -30 0 -40 -4
-44 -20 -4 -15 -14 -20 -40 -20 -34 0 -36 -2 -39 -37 -3 -36 -5 -38 -40 -41
-24 -2 -38 -8 -38 -17 0 -8 -11 -26 -25 -40 -21 -21 -35 -25 -80 -25 l-54 0
-3 -37 -3 -38 -77 -3 c-75 -3 -97 -12 -60 -27 16 -6 16 -7 0 -19 -10 -7 -18
-18 -18 -25 0 -7 -27 -11 -80 -11 -61 0 -80 -3 -80 -14 0 -10 -32 -15 -137
-20 -211 -10 -263 -17 -263 -32 0 -10 13 -14 40 -14 29 0 40 -4 40 -15 0 -12
-16 -15 -80 -15 -64 0 -80 3 -80 15 0 11 -11 15 -40 15 l-40 0 0 -40 0 -40
-120 0 c-96 0 -120 -3 -120 -14 0 -10 -21 -16 -80 -20 -44 -3 -116 -9 -160
-12 l-80 -6 0 -29 c0 -27 -3 -29 -40 -29 -29 0 -40 4 -40 15 0 11 -11 15 -40
15 -36 0 -40 -2 -40 -25 0 -22 -4 -25 -40 -25 -29 0 -40 -4 -40 -15 0 -11 -11
-15 -40 -15 -29 0 -40 -4 -40 -15 0 -11 -11 -15 -40 -15 -22 0 -40 -4 -40 -10
0 -5 -18 -10 -40 -10 -36 0 -40 -2 -40 -25 0 -25 -1 -25 -80 -25 -64 0 -80 -3
-80 -15 0 -11 -11 -15 -36 -15 -33 0 -53 -6 -124 -39 -21 -9 -22 -10 -2 -5 12
3 22 1 22 -4 0 -6 -17 -13 -38 -17 -53 -9 -65 -19 -65 -54 0 -29 -1 -30 -15
-10 l-14 20 -18 -21 c-14 -16 -19 -18 -29 -7 -6 8 -7 18 -3 22 4 5 2 5 -5 1
-7 -4 -17 3 -24 16 -6 13 -19 32 -29 43 -41 47 -243 430 -380 720 -147 312
-289 588 -379 735 -76 123 -183 308 -256 440 -147 266 -218 378 -327 522 -32
42 -74 114 -94 159 -34 76 -107 221 -124 244 -4 6 -38 69 -75 140 -162 310
-217 368 -490 510 -160 83 -220 130 -415 320 -184 180 -229 214 -400 303 -58
29 -111 59 -118 65 -15 12 -145 83 -184 99 -16 7 -28 16 -28 20 0 4 -4 8 -9 8
-11 0 -156 88 -191 116 -30 24 -165 158 -246 244 -110 117 -241 227 -355 300
l-64 40 -1182 0 -1183 0 0 -3600z m6601 -1507 c13 -16 12 -17 -3 -4 -10 7 -18
15 -18 17 0 8 8 3 21 -13z"/>
<path d="M10800 4015 c0 -11 11 -15 40 -15 29 0 40 4 40 15 0 11 -11 15 -40
15 -29 0 -40 -4 -40 -15z"/>
<path d="M12770 3880 c0 -29 4 -40 15 -40 11 0 15 11 15 40 0 29 -4 40 -15 40
-11 0 -15 -11 -15 -40z"/>
<path d="M12560 3855 c0 -11 11 -15 40 -15 29 0 40 4 40 15 0 11 -11 15 -40
15 -29 0 -40 -4 -40 -15z"/>
</g>
</svg>
