<svg width="355" height="213" viewBox="0 0 355 213" fill="none" xmlns="http://www.w3.org/2000/svg">
<g clip-path="url(#clip0_23_0)">
<rect width="355" height="213" fill="#1E1F4B"/>
<path d="M110.886 3.17697C64.9945 -13.643 56.3655 -16.6022 0 -37.7136V228.331H355V42.0179C329.21 31.6275 311.548 41.4164 288.079 30.4374C259.624 17.126 238.701 20.8906 220.953 15.2699C172.857 0.0389633 148.606 17.0018 110.886 3.17697Z" fill="#2C2C60"/>
<path d="M111.399 11.0681C63.7263 0.283394 56.3655 -16.6022 0 -37.7136V228.331H355V77.6819C332.921 79.1989 314.398 68.9189 287.566 59.3375C259.552 51.015 232.138 55.9567 215.726 45.7073C181.364 24.2482 162.129 22.5446 111.399 11.0681Z" fill="#191B44"/>
<g filter="url(#filter0_bf_23_0)">
<circle cx="72" cy="-103" r="152" fill="#C4C4C4" fill-opacity="0.01"/>
</g>
<g filter="url(#filter1_bf_23_0)">
<circle cx="335.5" cy="88.5" r="62.5" fill="#C4C4C4" fill-opacity="0.01"/>
</g>
<path d="M100.945 46.6296C52.8972 37.6666 56.3655 21.1114 0 0V228.331H355V87.1103C315.582 89.8187 270.941 94.7804 221.055 71.8404C181.37 53.591 155.947 56.8898 100.945 46.6296Z" fill="#C92729"/>
<g filter="url(#filter2_f_23_0)">
<path d="M100.945 59.7474C52.8972 50.7844 56.3655 34.2292 0 13.1178V228.331H355V101.458C321.078 97.461 271.886 96.9341 215.214 89.16C171.939 83.2236 155.947 70.0076 100.945 59.7474Z" fill="#621313"/>
</g>
<path d="M113.448 54.0084C63.7442 31.0522 42.8377 38.5335 0.409912 49.7041V228.331H355V124.311C302.734 112.731 291.192 102.564 222.285 97.2561C151.777 91.8245 135.046 63.9834 113.448 54.0084Z" fill="#A460E9"/>
<g filter="url(#filter3_f_23_0)">
<path d="M113.448 54.0084C63.7442 31.0522 42.8377 38.5335 0.409912 49.7041V228.331H355V130.051C303.149 123.526 291.818 123.292 222.285 110.374C152.758 97.457 135.046 63.9834 113.448 54.0084Z" fill="#8642CB"/>
</g>
<g filter="url(#filter4_bf_23_0)">
<circle cx="140" cy="134" r="79" fill="#C4C4C4" fill-opacity="0.01"/>
</g>
<path d="M239.809 118.675C176.466 107.686 162.56 88.099 134.457 65.2815C111.153 46.3599 99.8945 26.4538 87.0078 16.3972C59.3785 -4.85594 20.3551 -2.34463 0.409912 -15.3724V228.331H355V147.165C325.311 151.682 308.903 137.233 289.616 128.513C270.491 121.224 250.837 120.588 239.809 118.675Z" fill="#369DC4"/>
<g filter="url(#filter5_f_23_0)">
<path d="M247.393 142.451C183.149 130.546 158.181 121.313 134.457 106.275C119.048 96.5063 108.498 73.9215 87.0078 57.3903C59.3785 36.1371 20.3551 38.6484 0.409912 25.6207V228.331H355V160.898C296.175 147.678 276.703 147.882 247.393 142.451Z" fill="#552691"/>
</g>
<path d="M73.685 122.774C38.147 100.956 35.459 72.8652 0 49.7041V228.331H355V197.689C305.334 182.074 255.901 188.254 187.953 158.438C141.5 138.054 119.585 150.954 73.685 122.774Z" fill="#CA2F30"/>
<g filter="url(#filter6_f_23_0)">
<path d="M54.7257 148.907C20.8904 124.532 35.459 134.867 0 111.706V246.368H355V209.167C305.312 188.075 228.766 203.043 155.466 189.9C101.909 180.298 90.9375 174.994 54.7257 148.907Z" fill="#621313"/>
</g>
<g filter="url(#filter7_bf_23_0)">
<circle cx="-55" cy="145" r="151" fill="#C4C4C4" fill-opacity="0.01"/>
</g>
<g filter="url(#filter8_bf_23_0)">
<circle cx="305" cy="275" r="123" fill="#C4C4C4" fill-opacity="0.01"/>
</g>
<g style="mix-blend-mode:overlay">
<g clip-path="url(#clip1_23_0)">
<path fill-rule="evenodd" clip-rule="evenodd" d="M46.8235 25.9202C49.1265 23.1523 48.6423 20.2721 48.6423 20.2721C48.6423 20.2721 45.4181 20.2898 43.1033 23.3475C41.0424 26.068 41.568 28.3982 41.568 28.3982C41.568 28.3982 44.3611 28.8773 46.8235 25.9202Z" fill="white"/>
<path fill-rule="evenodd" clip-rule="evenodd" d="M38.143 27.3514C39.4539 28.5402 40.6763 28.3687 40.6763 28.3687C40.6763 28.3687 41.0483 26.9492 39.637 25.5416C38.3142 24.2287 36.8084 24.347 36.8084 24.347C36.8084 24.347 36.6726 26.0148 38.143 27.3514Z" fill="white"/>
<path fill-rule="evenodd" clip-rule="evenodd" d="M55.6221 47.0459C55.6516 46.9039 55.7166 46.7206 55.6634 46.5845C55.6103 46.4426 55.3445 46.0996 55.1615 46.0937C54.9725 46.0818 54.8485 46.07 54.7363 46.0937C54.6773 46.1055 54.5887 46.1351 54.4174 46.1469C54.2462 46.1587 53.8506 46.1765 53.6321 46.1883C53.4136 46.2001 53.2069 46.2297 53.0947 46.1883C52.9766 46.1469 52.7168 46.0582 52.6046 45.9458C52.4865 45.8275 52.1617 45.5082 52.1204 45.378C52.079 45.2479 52.0318 45.1001 52.0377 45.0114C52.0436 44.9226 52.0613 44.8694 52.0377 44.7807C52.0082 44.6861 51.8605 44.2366 51.8074 44.1774C51.7542 44.1183 51.6066 43.9231 51.5771 43.9113C51.5476 43.8936 51.4944 43.7398 51.4708 43.7102C51.4413 43.6807 51.4058 43.6393 51.4058 43.6393L49.9532 45.4372C50.0536 45.585 50.1067 45.7566 50.1067 45.9399C50.1067 46.4367 49.6993 46.8389 49.2091 46.8389C48.719 46.8389 48.3116 46.4308 48.3116 45.9399C48.3116 45.449 48.719 45.0409 49.2091 45.0409C49.2918 45.0409 49.3627 45.0528 49.4394 45.0705L51.2877 43.0123C51.2877 43.0123 50.9748 42.6634 50.9689 42.1962C50.9689 42.0956 51.0102 41.7644 51.0397 41.6402C51.0574 41.5574 51.0279 41.3918 50.9925 41.309C50.963 41.2262 50.898 41.0666 50.7327 40.9305C50.5673 40.7945 50.278 40.8063 50.2012 40.7058C50.1185 40.5993 50.0181 40.3982 50.0359 40.2327C50.0595 40.0257 50.1244 39.8955 50.213 39.795C50.3016 39.6945 50.3606 39.5998 50.3961 39.5289C50.4551 39.4165 50.4669 39.3633 50.5083 39.2805C50.5496 39.1977 50.5673 39.1622 50.5378 39.0202C50.5083 38.8724 50.1776 38.2514 50.0477 38.1035C49.9118 37.9498 49.5575 37.7309 49.5516 37.5594C49.5457 37.3879 49.5812 37.1927 49.5871 37.1277C49.593 37.0922 49.6166 36.7787 49.6402 36.483C49.6638 36.2583 49.6815 36.0454 49.6993 35.9803C49.717 35.9034 49.7229 35.3475 49.7111 35.241C49.7052 35.1346 49.7052 34.9808 49.7111 34.7383C49.717 34.4958 49.7288 34.0582 49.7052 33.9931C49.6815 33.9281 49.6756 33.8808 49.6107 33.798C49.5457 33.7092 49.4513 33.656 49.4217 33.5555C49.3922 33.449 49.3686 33.2775 49.4217 33.1829C49.4749 33.0882 49.6815 32.8931 49.6815 32.8931C49.6815 32.8931 49.7111 32.7866 49.7465 32.7511C49.776 32.7097 49.8115 32.6683 49.8764 32.6447C49.9414 32.621 49.9355 32.556 49.9886 32.4909C50.0477 32.4258 50.0359 32.3371 50.1185 32.2721C50.2012 32.207 50.1835 32.1834 50.3075 32.142C50.4374 32.1006 50.6736 31.9409 50.6736 31.9409C50.6736 31.9409 50.7149 31.8463 50.8271 31.8108C50.9452 31.7812 51.0574 31.7398 51.0574 31.7398L51.3881 31.5387C51.3881 31.5387 51.4295 31.4441 51.5003 31.4204C51.5712 31.3968 51.6539 31.3672 51.7424 31.3672C51.831 31.3672 51.9314 31.3909 51.9964 31.3672C52.0613 31.3435 52.1026 31.2962 52.1735 31.2726C52.2562 31.2489 52.3684 31.2903 52.4333 31.2726C52.4983 31.2548 52.516 31.1779 52.5869 31.1602C52.6577 31.1425 52.8054 31.1779 52.8703 31.1602C52.9353 31.1425 52.9116 31.0774 52.9884 31.0656C53.0711 31.0478 53.3841 31.0242 53.5022 31.036C53.5376 31.036 53.6498 31.0419 53.7915 31.0537C52.6991 30.1134 50.9039 29.0961 48.2525 29.0961C45.3708 29.0961 43.1623 30.7403 41.9636 30.7403C40.5759 30.7403 38.4973 29.1967 35.8282 29.1967C31.7182 29.1671 27.3366 32.8517 27.3366 39.8719C27.3366 46.8921 32.5095 55.8936 36.6076 55.8936C38.0367 55.8936 40.2334 54.4505 42.4478 54.4505C44.6622 54.4505 46.2212 55.8403 48.282 55.8403C51.9786 55.8403 54.8899 49.4825 55.7933 47.2469C55.6339 47.1641 55.5926 47.1641 55.6221 47.0459ZM31.293 32.964C29.6455 34.6792 28.4468 37.5594 28.4468 37.5594C28.4468 37.5594 28.4468 34.9571 30.3777 32.5382C32.8284 29.4687 36.4246 30.1725 36.4246 30.1725C33.159 30.6752 32.4032 31.8108 31.293 32.964ZM45.5657 38.6003C45.672 38.1035 46.1444 38.5648 46.5046 38.1982C46.788 37.9084 47.0242 37.8137 47.6207 38.1331C48.1108 38.3933 48.1462 39.1681 47.8096 39.3987C47.6207 39.5289 47.225 39.0261 47.0361 39.7359C46.9593 40.0257 46.605 39.9547 46.5459 39.9606C46.5282 39.9606 46.8412 39.931 46.8058 39.6176C46.7939 39.5111 46.7526 39.3987 46.5696 39.3278C46.2861 39.2154 46.0086 39.4401 45.8196 39.3396C45.6011 39.2154 45.5066 38.8665 45.5657 38.6003ZM47.662 43.657C47.6266 43.3672 48.0458 43.2785 47.8096 43.0123C47.5734 42.7462 46.9534 43.1957 46.4455 42.9591C46.2093 42.8467 45.9731 42.7639 45.7901 42.4209C45.607 42.0779 46.2861 41.5752 46.2861 41.3682C46.2861 41.1612 45.5893 41.3327 45.5007 40.8655C45.4358 40.5224 45.5539 40.2977 45.7901 40.1794C46.0263 40.0611 46.4455 40.0197 46.4455 40.0197C46.4455 40.0197 46.0912 40.0552 46.0499 40.3509C46.0027 40.6703 47.3667 40.6289 47.3667 40.6289C47.3667 40.6289 48.0517 40.6526 48.1167 41.1434C48.1817 41.6402 47.3313 41.6048 47.0774 41.7349C46.8235 41.865 46.7585 42.0365 46.8412 42.2494C46.9239 42.4623 47.2368 42.486 47.6325 42.4209C48.0281 42.3559 48.3647 42.4446 48.4297 42.6575C48.4946 42.8704 48.3824 42.9591 48.3824 42.9591C48.3824 42.9591 48.1757 43.1779 48.2171 43.5979C48.2466 43.8877 48.4356 44.2425 48.5478 44.4377C48.5773 44.485 48.5241 44.5382 48.4769 44.5146C48.223 44.3904 47.7151 44.1006 47.662 43.657Z" fill="white"/>
</g>
</g>
</g>
<defs>
<filter id="filter0_bf_23_0" x="-120" y="-295" width="384" height="384" filterUnits="userSpaceOnUse" color-interpolation-filters="sRGB">
<feFlood flood-opacity="0" result="BackgroundImageFix"/>
<feGaussianBlur in="BackgroundImageFix" stdDeviation="16"/>
<feComposite in2="SourceAlpha" operator="in" result="effect1_backgroundBlur_23_0"/>
<feBlend mode="normal" in="SourceGraphic" in2="effect1_backgroundBlur_23_0" result="shape"/>
<feGaussianBlur stdDeviation="20" result="effect2_foregroundBlur_23_0"/>
</filter>
<filter id="filter1_bf_23_0" x="233" y="-14" width="205" height="205" filterUnits="userSpaceOnUse" color-interpolation-filters="sRGB">
<feFlood flood-opacity="0" result="BackgroundImageFix"/>
<feGaussianBlur in="BackgroundImageFix" stdDeviation="16"/>
<feComposite in2="SourceAlpha" operator="in" result="effect1_backgroundBlur_23_0"/>
<feBlend mode="normal" in="SourceGraphic" in2="effect1_backgroundBlur_23_0" result="shape"/>
<feGaussianBlur stdDeviation="20" result="effect2_foregroundBlur_23_0"/>
</filter>
<filter id="filter2_f_23_0" x="-31.9746" y="-18.8568" width="418.949" height="279.163" filterUnits="userSpaceOnUse" color-interpolation-filters="sRGB">
<feFlood flood-opacity="0" result="BackgroundImageFix"/>
<feBlend mode="normal" in="SourceGraphic" in2="BackgroundImageFix" result="shape"/>
<feGaussianBlur stdDeviation="15.9873" result="effect1_foregroundBlur_23_0"/>
</filter>
<filter id="filter3_f_23_0" x="-11.888" y="26.7334" width="379.186" height="213.896" filterUnits="userSpaceOnUse" color-interpolation-filters="sRGB">
<feFlood flood-opacity="0" result="BackgroundImageFix"/>
<feBlend mode="normal" in="SourceGraphic" in2="BackgroundImageFix" result="shape"/>
<feGaussianBlur stdDeviation="6.14896" result="effect1_foregroundBlur_23_0"/>
</filter>
<filter id="filter4_bf_23_0" x="37" y="31" width="206" height="206" filterUnits="userSpaceOnUse" color-interpolation-filters="sRGB">
<feFlood flood-opacity="0" result="BackgroundImageFix"/>
<feGaussianBlur in="BackgroundImageFix" stdDeviation="8"/>
<feComposite in2="SourceAlpha" operator="in" result="effect1_backgroundBlur_23_0"/>
<feBlend mode="normal" in="SourceGraphic" in2="effect1_backgroundBlur_23_0" result="shape"/>
<feGaussianBlur stdDeviation="12" result="effect2_foregroundBlur_23_0"/>
</filter>
<filter id="filter5_f_23_0" x="-36.4839" y="-11.2731" width="428.378" height="276.498" filterUnits="userSpaceOnUse" color-interpolation-filters="sRGB">
<feFlood flood-opacity="0" result="BackgroundImageFix"/>
<feBlend mode="normal" in="SourceGraphic" in2="BackgroundImageFix" result="shape"/>
<feGaussianBlur stdDeviation="18.4469" result="effect1_foregroundBlur_23_0"/>
</filter>
<filter id="filter6_f_23_0" x="-31.9746" y="79.7315" width="418.949" height="198.611" filterUnits="userSpaceOnUse" color-interpolation-filters="sRGB">
<feFlood flood-opacity="0" result="BackgroundImageFix"/>
<feBlend mode="normal" in="SourceGraphic" in2="BackgroundImageFix" result="shape"/>
<feGaussianBlur stdDeviation="15.9873" result="effect1_foregroundBlur_23_0"/>
</filter>
<filter id="filter7_bf_23_0" x="-246" y="-46" width="382" height="382" filterUnits="userSpaceOnUse" color-interpolation-filters="sRGB">
<feFlood flood-opacity="0" result="BackgroundImageFix"/>
<feGaussianBlur in="BackgroundImageFix" stdDeviation="16"/>
<feComposite in2="SourceAlpha" operator="in" result="effect1_backgroundBlur_23_0"/>
<feBlend mode="normal" in="SourceGraphic" in2="effect1_backgroundBlur_23_0" result="shape"/>
<feGaussianBlur stdDeviation="20" result="effect2_foregroundBlur_23_0"/>
</filter>
<filter id="filter8_bf_23_0" x="158" y="128" width="294" height="294" filterUnits="userSpaceOnUse" color-interpolation-filters="sRGB">
<feFlood flood-opacity="0" result="BackgroundImageFix"/>
<feGaussianBlur in="BackgroundImageFix" stdDeviation="8"/>
<feComposite in2="SourceAlpha" operator="in" result="effect1_backgroundBlur_23_0"/>
<feBlend mode="normal" in="SourceGraphic" in2="effect1_backgroundBlur_23_0" result="shape"/>
<feGaussianBlur stdDeviation="12" result="effect2_foregroundBlur_23_0"/>
</filter>
<clipPath id="clip0_23_0">
<rect width="355" height="213" fill="white"/>
</clipPath>
<clipPath id="clip1_23_0">
<rect width="29" height="36" fill="white" transform="translate(27 20)"/>
</clipPath>
</defs>
</svg>
